<?xml version="1.0" encoding="UTF-8" standalone="no"?>
<!DOCTYPE svg PUBLIC "-//W3C//DTD SVG 1.1//EN" "http://www.w3.org/Graphics/SVG/1.1/DTD/svg11.dtd">
<svg width="100%" height="100%" viewBox="0 0 5000 5000" version="1.1" xmlns="http://www.w3.org/2000/svg" xmlns:xlink="http://www.w3.org/1999/xlink" xml:space="preserve" xmlns:serif="http://www.serif.com/" style="fill-rule:evenodd;clip-rule:evenodd;stroke-linecap:round;stroke-linejoin:round;stroke-miterlimit:1.5;">
    <g transform="matrix(13.3333,0,0,13.3333,-32141,-30833.3)">
        <path d="M2598.08,2500L2598.08,2437.5L2435.7,2343.75L2435.7,2406.25L2598.08,2500Z" style="fill:rgb(191,33,33);stroke:black;stroke-width:0.08px;"/>
        <path d="M2598.08,2500L2760.46,2406.25L2760.46,2343.75L2598.08,2437.5L2598.08,2500Z" style="fill:rgb(115,3,3);stroke:black;stroke-width:0.08px;"/>
        <path d="M2435.7,2343.75L2489.82,2312.5L2598.08,2375L2598.08,2437.5L2435.7,2343.75Z" style="fill:rgb(191,72,33);stroke:black;stroke-width:0.08px;"/>
        <path d="M2598.08,2375L2706.33,2312.5L2760.46,2343.75L2598.08,2437.5" style="fill:rgb(191,72,33);stroke:black;stroke-width:0.08px;"/>
        <path d="M2435.7,2406.25L2435.7,2656.25L2489.82,2687.5L2489.82,2437.5L2435.7,2406.25Z" style="fill:rgb(191,33,33);stroke:black;stroke-width:0.08px;"/>
        <path d="M2760.46,2406.25L2760.46,2656.25L2706.33,2687.5L2706.33,2437.5L2760.46,2406.25Z" style="fill:rgb(115,3,3);stroke:black;stroke-width:0.08px;"/>
        <path d="M2489.82,2687.5L2543.95,2656.25L2543.95,2468.75L2489.82,2437.5" style="fill:rgb(115,3,3);stroke:black;stroke-width:0.08px;"/>
        <path d="M2706.33,2687.5L2652.2,2656.25L2652.2,2468.75L2706.33,2437.5" style="fill:rgb(191,33,33);stroke:black;stroke-width:0.08px;"/>
    </g>
</svg>
